<?xml version="1.0" encoding="UTF-8"?>
<!DOCTYPE svg PUBLIC "-//W3C//DTD SVG 1.1//EN" "http://www.w3.org/Graphics/SVG/1.1/DTD/svg11.dtd">
<svg xmlns="http://www.w3.org/2000/svg" version="1.1" width="48px" height="48px" style="shape-rendering:geometricPrecision; text-rendering:geometricPrecision; image-rendering:optimizeQuality; fill-rule:evenodd; clip-rule:evenodd" xmlns:xlink="http://www.w3.org/1999/xlink">
<g><path style="opacity:0.959" fill="#fefffe" d="M 1.5,5.5 C 3.85684,5.33669 6.19018,5.50335 8.5,6C 9.35668,6.68909 10.0233,7.52242 10.5,8.5C 22.1477,9.49891 33.8143,9.83225 45.5,9.5C 45.2112,15.5677 44.3778,21.5677 43,27.5C 42.6541,29.8477 41.4875,31.6811 39.5,33C 30.8333,33.6667 22.1667,33.6667 13.5,33C 11.5125,31.6811 10.3459,29.8477 10,27.5C 9.18934,21.1135 7.68934,14.9468 5.5,9C 3.61611,8.78369 1.94944,8.11702 0.5,7C 1.05596,6.61742 1.38929,6.11742 1.5,5.5 Z"/></g>
<g><path style="opacity:0.765" fill="#fefffe" d="M 16.5,35.5 C 18.5,35.5 20.5,35.5 22.5,35.5C 22.5,37.5 22.5,39.5 22.5,41.5C 20.5,41.5 18.5,41.5 16.5,41.5C 16.5,39.5 16.5,37.5 16.5,35.5 Z"/></g>
<g><path style="opacity:0.765" fill="#fefffe" d="M 30.5,35.5 C 32.5,35.5 34.5,35.5 36.5,35.5C 36.5,37.5 36.5,39.5 36.5,41.5C 34.5,41.5 32.5,41.5 30.5,41.5C 30.5,39.5 30.5,37.5 30.5,35.5 Z"/></g>
</svg>
