<?xml version="1.0" encoding="UTF-8"?>
<!DOCTYPE svg PUBLIC "-//W3C//DTD SVG 1.1//EN" "http://www.w3.org/Graphics/SVG/1.1/DTD/svg11.dtd">
<svg xmlns="http://www.w3.org/2000/svg" version="1.1" width="50px" height="50px" style="shape-rendering:geometricPrecision; text-rendering:geometricPrecision; image-rendering:optimizeQuality; fill-rule:evenodd; clip-rule:evenodd" xmlns:xlink="http://www.w3.org/1999/xlink">
<g><path style="opacity:0.793" fill="#fefffe" d="M 13.5,11.5 C 17.4188,14.0751 21.0855,17.0751 24.5,20.5C 27.6511,17.8496 30.6511,15.0162 33.5,12C 36,11.8333 37.1667,13 37,15.5C 33.9838,18.3489 31.1504,21.3489 28.5,24.5C 31.1504,27.6511 33.9838,30.6511 37,33.5C 37.1667,36 36,37.1667 33.5,37C 30.6511,33.9838 27.6511,31.1504 24.5,28.5C 21.3489,31.1504 18.3489,33.9838 15.5,37C 13,37.1667 11.8333,36 12,33.5C 15.0162,30.6511 17.8496,27.6511 20.5,24.5C 17.8496,21.3489 15.0162,18.3489 12,15.5C 11.7003,13.9343 12.2003,12.601 13.5,11.5 Z"/></g>
</svg>
