<?xml version="1.0" encoding="UTF-8"?>
<!DOCTYPE svg PUBLIC "-//W3C//DTD SVG 1.1//EN" "http://www.w3.org/Graphics/SVG/1.1/DTD/svg11.dtd">
<svg xmlns="http://www.w3.org/2000/svg" version="1.1" width="78px" height="78px" style="shape-rendering:geometricPrecision; text-rendering:geometricPrecision; image-rendering:optimizeQuality; fill-rule:evenodd; clip-rule:evenodd" xmlns:xlink="http://www.w3.org/1999/xlink">
<g><path style="opacity:0.857" fill="#fefffe" d="M 14.5,15.5 C 30.5035,15.3334 46.5035,15.5001 62.5,16C 65.3532,19.0961 65.0199,21.7627 61.5,24C 46.1667,24.6667 30.8333,24.6667 15.5,24C 11.8736,21.6025 11.5402,18.7692 14.5,15.5 Z"/></g>
<g><path style="opacity:0.962" fill="#fefffe" d="M 14.5,34.5 C 30.5035,34.3334 46.5035,34.5001 62.5,35C 65.1667,37.3333 65.1667,39.6667 62.5,42C 46.5,42.6667 30.5,42.6667 14.5,42C 11.9142,39.506 11.9142,37.006 14.5,34.5 Z"/></g>
<g><path style="opacity:0.857" fill="#fefffe" d="M 15.5,52.5 C 30.837,52.3334 46.1703,52.5001 61.5,53C 65.0199,55.2373 65.3532,57.9039 62.5,61C 46.5,61.6667 30.5,61.6667 14.5,61C 11.7514,57.7624 12.0847,54.929 15.5,52.5 Z"/></g>
</svg>
